  0
SECTION
  2
BLOCKS
  0
ENDSEC
  0
SECTION
  2
ENTITIES
  0
LINE
  8
0
 10
96.5451
 20
0.244705
 11
97.5
 21
0.669861
  0
LINE
  8
0
 10
97.5
 20
0.669861
 11
98.3456
 21
1.28427
  0
LINE
  8
0
 10
98.3456
 20
1.28427
 11
99.0451
 21
2.06107
  0
LINE
  8
0
 10
99.0451
 20
2.06107
 11
99.5677
 21
2.96631
  0
LINE
  8
0
 10
99.5677
 20
2.96631
 11
99.8907
 21
3.96043
  0
LINE
  8
0
 10
99.8907
 20
3.96043
 11
100
 21
5
  0
LINE
  8
0
 10
100
 20
5
 11
100
 21
95
  0
LINE
  8
0
 10
100
 20
95
 11
99.8907
 21
96.0396
  0
LINE
  8
0
 10
99.8907
 20
96.0396
 11
99.5677
 21
97.0337
  0
LINE
  8
0
 10
99.5677
 20
97.0337
 11
99.0451
 21
97.9389
  0
LINE
  8
0
 10
99.0451
 20
97.9389
 11
98.3456
 21
98.7157
  0
LINE
  8
0
 10
98.3456
 20
98.7157
 11
97.5
 21
99.3301
  0
LINE
  8
0
 10
97.5
 20
99.3301
 11
96.5451
 21
99.7553
  0
LINE
  8
0
 10
96.5451
 20
99.7553
 11
95.5226
 21
99.9726
  0
LINE
  8
0
 10
95.5226
 20
99.9726
 11
4.47736
 21
99.9726
  0
LINE
  8
0
 10
4.47736
 20
99.9726
 11
3.45491
 21
99.7553
  0
LINE
  8
0
 10
3.45491
 20
99.7553
 11
2.5
 21
99.3301
  0
LINE
  8
0
 10
2.5
 20
99.3301
 11
1.65434
 21
98.7157
  0
LINE
  8
0
 10
1.65434
 20
98.7157
 11
0.95491
 21
97.9389
  0
LINE
  8
0
 10
0.95491
 20
97.9389
 11
0.432266
 21
97.0337
  0
LINE
  8
0
 10
0.432266
 20
97.0337
 11
0.109253
 21
96.0396
  0
LINE
  8
0
 10
0.109253
 20
96.0396
 11
0
 21
95
  0
LINE
  8
0
 10
0
 20
95
 11
0
 21
5
  0
LINE
  8
0
 10
0
 20
5
 11
0.109253
 21
3.96043
  0
LINE
  8
0
 10
0.109253
 20
3.96043
 11
0.432266
 21
2.96631
  0
LINE
  8
0
 10
0.432266
 20
2.96631
 11
0.95491
 21
2.06107
  0
LINE
  8
0
 10
0.95491
 20
2.06107
 11
1.65434
 21
1.28427
  0
LINE
  8
0
 10
1.65434
 20
1.28427
 11
2.5
 21
0.669861
  0
LINE
  8
0
 10
2.5
 20
0.669861
 11
3.45491
 21
0.244705
  0
LINE
  8
0
 10
3.45491
 20
0.244705
 11
4.47736
 21
0.0273895
  0
LINE
  8
0
 10
4.47736
 20
0.0273895
 11
95.5226
 21
0.0273895
  0
LINE
  8
0
 10
95.5226
 20
0.0273895
 11
96.5451
 21
0.244705
  0
LINE
  8
0
 10
22.0741
 20
71.4442
 11
21.3584
 21
71.5963
  0
LINE
  8
0
 10
21.3584
 20
71.5963
 11
20.69
 21
71.8939
  0
LINE
  8
0
 10
20.69
 20
71.8939
 11
20.098
 21
72.324
  0
LINE
  8
0
 10
20.098
 20
72.324
 11
19.6084
 21
72.8677
  0
LINE
  8
0
 10
19.6084
 20
72.8677
 11
19.2426
 21
73.5014
  0
LINE
  8
0
 10
19.2426
 20
73.5014
 11
19.0165
 21
74.1973
  0
LINE
  8
0
 10
19.0165
 20
74.1973
 11
18.94
 21
74.925
  0
LINE
  8
0
 10
18.94
 20
74.925
 11
19.0165
 21
75.6527
  0
LINE
  8
0
 10
19.0165
 20
75.6527
 11
19.2426
 21
76.3486
  0
LINE
  8
0
 10
19.2426
 20
76.3486
 11
19.6084
 21
76.9822
  0
LINE
  8
0
 10
19.6084
 20
76.9822
 11
20.098
 21
77.526
  0
LINE
  8
0
 10
20.098
 20
77.526
 11
20.69
 21
77.9561
  0
LINE
  8
0
 10
20.69
 20
77.9561
 11
21.3584
 21
78.2537
  0
LINE
  8
0
 10
21.3584
 20
78.2537
 11
22.0741
 21
78.4058
  0
LINE
  8
0
 10
22.0741
 20
78.4058
 11
22.8058
 21
78.4058
  0
LINE
  8
0
 10
22.8058
 20
78.4058
 11
23.5215
 21
78.2537
  0
LINE
  8
0
 10
23.5215
 20
78.2537
 11
24.19
 21
77.9561
  0
LINE
  8
0
 10
24.19
 20
77.9561
 11
24.782
 21
77.526
  0
LINE
  8
0
 10
24.782
 20
77.526
 11
25.2715
 21
76.9822
  0
LINE
  8
0
 10
25.2715
 20
76.9822
 11
25.6374
 21
76.3486
  0
LINE
  8
0
 10
25.6374
 20
76.3486
 11
25.8635
 21
75.6527
  0
LINE
  8
0
 10
25.8635
 20
75.6527
 11
25.94
 21
74.925
  0
LINE
  8
0
 10
25.94
 20
74.925
 11
25.8635
 21
74.1973
  0
LINE
  8
0
 10
25.8635
 20
74.1973
 11
25.6374
 21
73.5014
  0
LINE
  8
0
 10
25.6374
 20
73.5014
 11
25.2715
 21
72.8677
  0
LINE
  8
0
 10
25.2715
 20
72.8677
 11
24.782
 21
72.324
  0
LINE
  8
0
 10
24.782
 20
72.324
 11
24.19
 21
71.8939
  0
LINE
  8
0
 10
24.19
 20
71.8939
 11
23.5215
 21
71.5963
  0
LINE
  8
0
 10
23.5215
 20
71.5963
 11
22.8058
 21
71.4442
  0
LINE
  8
0
 10
22.8058
 20
71.4442
 11
22.0741
 21
71.4442
  0
LINE
  8
0
 10
39.8141
 20
71.4442
 11
39.0984
 21
71.5963
  0
LINE
  8
0
 10
39.0984
 20
71.5963
 11
38.43
 21
71.8939
  0
LINE
  8
0
 10
38.43
 20
71.8939
 11
37.838
 21
72.324
  0
LINE
  8
0
 10
37.838
 20
72.324
 11
37.3484
 21
72.8677
  0
LINE
  8
0
 10
37.3484
 20
72.8677
 11
36.9826
 21
73.5014
  0
LINE
  8
0
 10
36.9826
 20
73.5014
 11
36.7565
 21
74.1973
  0
LINE
  8
0
 10
36.7565
 20
74.1973
 11
36.68
 21
74.925
  0
LINE
  8
0
 10
36.68
 20
74.925
 11
36.7565
 21
75.6527
  0
LINE
  8
0
 10
36.7565
 20
75.6527
 11
36.9826
 21
76.3486
  0
LINE
  8
0
 10
36.9826
 20
76.3486
 11
37.3484
 21
76.9822
  0
LINE
  8
0
 10
37.3484
 20
76.9822
 11
37.838
 21
77.526
  0
LINE
  8
0
 10
37.838
 20
77.526
 11
38.43
 21
77.9561
  0
LINE
  8
0
 10
38.43
 20
77.9561
 11
39.0984
 21
78.2537
  0
LINE
  8
0
 10
39.0984
 20
78.2537
 11
39.8141
 21
78.4058
  0
LINE
  8
0
 10
39.8141
 20
78.4058
 11
40.5458
 21
78.4058
  0
LINE
  8
0
 10
40.5458
 20
78.4058
 11
41.2616
 21
78.2537
  0
LINE
  8
0
 10
41.2616
 20
78.2537
 11
41.93
 21
77.9561
  0
LINE
  8
0
 10
41.93
 20
77.9561
 11
42.5219
 21
77.526
  0
LINE
  8
0
 10
42.5219
 20
77.526
 11
43.0116
 21
76.9822
  0
LINE
  8
0
 10
43.0116
 20
76.9822
 11
43.3774
 21
76.3486
  0
LINE
  8
0
 10
43.3774
 20
76.3486
 11
43.6035
 21
75.6527
  0
LINE
  8
0
 10
43.6035
 20
75.6527
 11
43.68
 21
74.925
  0
LINE
  8
0
 10
43.68
 20
74.925
 11
43.6035
 21
74.1973
  0
LINE
  8
0
 10
43.6035
 20
74.1973
 11
43.3774
 21
73.5014
  0
LINE
  8
0
 10
43.3774
 20
73.5014
 11
43.0116
 21
72.8677
  0
LINE
  8
0
 10
43.0116
 20
72.8677
 11
42.5219
 21
72.324
  0
LINE
  8
0
 10
42.5219
 20
72.324
 11
41.93
 21
71.8939
  0
LINE
  8
0
 10
41.93
 20
71.8939
 11
41.2616
 21
71.5963
  0
LINE
  8
0
 10
41.2616
 20
71.5963
 11
40.5458
 21
71.4442
  0
LINE
  8
0
 10
40.5458
 20
71.4442
 11
39.8141
 21
71.4442
  0
LINE
  8
0
 10
57.5541
 20
71.4442
 11
56.8384
 21
71.5963
  0
LINE
  8
0
 10
56.8384
 20
71.5963
 11
56.17
 21
71.8939
  0
LINE
  8
0
 10
56.17
 20
71.8939
 11
55.578
 21
72.324
  0
LINE
  8
0
 10
55.578
 20
72.324
 11
55.0884
 21
72.8677
  0
LINE
  8
0
 10
55.0884
 20
72.8677
 11
54.7226
 21
73.5014
  0
LINE
  8
0
 10
54.7226
 20
73.5014
 11
54.4965
 21
74.1973
  0
LINE
  8
0
 10
54.4965
 20
74.1973
 11
54.42
 21
74.925
  0
LINE
  8
0
 10
54.42
 20
74.925
 11
54.4965
 21
75.6527
  0
LINE
  8
0
 10
54.4965
 20
75.6527
 11
54.7226
 21
76.3486
  0
LINE
  8
0
 10
54.7226
 20
76.3486
 11
55.0884
 21
76.9822
  0
LINE
  8
0
 10
55.0884
 20
76.9822
 11
55.578
 21
77.526
  0
LINE
  8
0
 10
55.578
 20
77.526
 11
56.17
 21
77.9561
  0
LINE
  8
0
 10
56.17
 20
77.9561
 11
56.8384
 21
78.2537
  0
LINE
  8
0
 10
56.8384
 20
78.2537
 11
57.5541
 21
78.4058
  0
LINE
  8
0
 10
57.5541
 20
78.4058
 11
58.2858
 21
78.4058
  0
LINE
  8
0
 10
58.2858
 20
78.4058
 11
59.0016
 21
78.2537
  0
LINE
  8
0
 10
59.0016
 20
78.2537
 11
59.67
 21
77.9561
  0
LINE
  8
0
 10
59.67
 20
77.9561
 11
60.2619
 21
77.526
  0
LINE
  8
0
 10
60.2619
 20
77.526
 11
60.7516
 21
76.9822
  0
LINE
  8
0
 10
60.7516
 20
76.9822
 11
61.1174
 21
76.3486
  0
LINE
  8
0
 10
61.1174
 20
76.3486
 11
61.3435
 21
75.6527
  0
LINE
  8
0
 10
61.3435
 20
75.6527
 11
61.42
 21
74.925
  0
LINE
  8
0
 10
61.42
 20
74.925
 11
61.3435
 21
74.1973
  0
LINE
  8
0
 10
61.3435
 20
74.1973
 11
61.1174
 21
73.5014
  0
LINE
  8
0
 10
61.1174
 20
73.5014
 11
60.7516
 21
72.8677
  0
LINE
  8
0
 10
60.7516
 20
72.8677
 11
60.2619
 21
72.324
  0
LINE
  8
0
 10
60.2619
 20
72.324
 11
59.67
 21
71.8939
  0
LINE
  8
0
 10
59.67
 20
71.8939
 11
59.0016
 21
71.5963
  0
LINE
  8
0
 10
59.0016
 20
71.5963
 11
58.2858
 21
71.4442
  0
LINE
  8
0
 10
58.2858
 20
71.4442
 11
57.5541
 21
71.4442
  0
LINE
  8
0
 10
75.3341
 20
71.4442
 11
74.6184
 21
71.5963
  0
LINE
  8
0
 10
74.6184
 20
71.5963
 11
73.95
 21
71.8939
  0
LINE
  8
0
 10
73.95
 20
71.8939
 11
73.358
 21
72.324
  0
LINE
  8
0
 10
73.358
 20
72.324
 11
72.8684
 21
72.8677
  0
LINE
  8
0
 10
72.8684
 20
72.8677
 11
72.5026
 21
73.5014
  0
LINE
  8
0
 10
72.5026
 20
73.5014
 11
72.2765
 21
74.1973
  0
LINE
  8
0
 10
72.2765
 20
74.1973
 11
72.2
 21
74.925
  0
LINE
  8
0
 10
72.2
 20
74.925
 11
72.2765
 21
75.6527
  0
LINE
  8
0
 10
72.2765
 20
75.6527
 11
72.5026
 21
76.3486
  0
LINE
  8
0
 10
72.5026
 20
76.3486
 11
72.8684
 21
76.9822
  0
LINE
  8
0
 10
72.8684
 20
76.9822
 11
73.358
 21
77.526
  0
LINE
  8
0
 10
73.358
 20
77.526
 11
73.95
 21
77.9561
  0
LINE
  8
0
 10
73.95
 20
77.9561
 11
74.6184
 21
78.2537
  0
LINE
  8
0
 10
74.6184
 20
78.2537
 11
75.3341
 21
78.4058
  0
LINE
  8
0
 10
75.3341
 20
78.4058
 11
76.0658
 21
78.4058
  0
LINE
  8
0
 10
76.0658
 20
78.4058
 11
76.7816
 21
78.2537
  0
LINE
  8
0
 10
76.7816
 20
78.2537
 11
77.45
 21
77.9561
  0
LINE
  8
0
 10
77.45
 20
77.9561
 11
78.0419
 21
77.526
  0
LINE
  8
0
 10
78.0419
 20
77.526
 11
78.5316
 21
76.9822
  0
LINE
  8
0
 10
78.5316
 20
76.9822
 11
78.8974
 21
76.3486
  0
LINE
  8
0
 10
78.8974
 20
76.3486
 11
79.1235
 21
75.6527
  0
LINE
  8
0
 10
79.1235
 20
75.6527
 11
79.2
 21
74.925
  0
LINE
  8
0
 10
79.2
 20
74.925
 11
79.1235
 21
74.1973
  0
LINE
  8
0
 10
79.1235
 20
74.1973
 11
78.8974
 21
73.5014
  0
LINE
  8
0
 10
78.8974
 20
73.5014
 11
78.5316
 21
72.8677
  0
LINE
  8
0
 10
78.5316
 20
72.8677
 11
78.0419
 21
72.324
  0
LINE
  8
0
 10
78.0419
 20
72.324
 11
77.45
 21
71.8939
  0
LINE
  8
0
 10
77.45
 20
71.8939
 11
76.7816
 21
71.5963
  0
LINE
  8
0
 10
76.7816
 20
71.5963
 11
76.0658
 21
71.4442
  0
LINE
  8
0
 10
76.0658
 20
71.4442
 11
75.3341
 21
71.4442
  0
LINE
  8
0
 10
12.2932
 20
64.5482
 11
11.9865
 21
64.6134
  0
LINE
  8
0
 10
11.9865
 20
64.6134
 11
11.7
 21
64.741
  0
LINE
  8
0
 10
11.7
 20
64.741
 11
11.4463
 21
64.9253
  0
LINE
  8
0
 10
11.4463
 20
64.9253
 11
11.2365
 21
65.1583
  0
LINE
  8
0
 10
11.2365
 20
65.1583
 11
11.0797
 21
65.4299
  0
LINE
  8
0
 10
11.0797
 20
65.4299
 11
10.9828
 21
65.7281
  0
LINE
  8
0
 10
10.9828
 20
65.7281
 11
10.95
 21
66.04
  0
LINE
  8
0
 10
10.95
 20
66.04
 11
10.9828
 21
66.3519
  0
LINE
  8
0
 10
10.9828
 20
66.3519
 11
11.0797
 21
66.6501
  0
LINE
  8
0
 10
11.0797
 20
66.6501
 11
11.2365
 21
66.9217
  0
LINE
  8
0
 10
11.2365
 20
66.9217
 11
11.4463
 21
67.1547
  0
LINE
  8
0
 10
11.4463
 20
67.1547
 11
11.7
 21
67.339
  0
LINE
  8
0
 10
11.7
 20
67.339
 11
11.9865
 21
67.4666
  0
LINE
  8
0
 10
11.9865
 20
67.4666
 11
12.2932
 21
67.5318
  0
LINE
  8
0
 10
12.2932
 20
67.5318
 11
12.6068
 21
67.5318
  0
LINE
  8
0
 10
12.6068
 20
67.5318
 11
12.9135
 21
67.4666
  0
LINE
  8
0
 10
12.9135
 20
67.4666
 11
13.2
 21
67.339
  0
LINE
  8
0
 10
13.2
 20
67.339
 11
13.4537
 21
67.1547
  0
LINE
  8
0
 10
13.4537
 20
67.1547
 11
13.6635
 21
66.9217
  0
LINE
  8
0
 10
13.6635
 20
66.9217
 11
13.8203
 21
66.6501
  0
LINE
  8
0
 10
13.8203
 20
66.6501
 11
13.9172
 21
66.3519
  0
LINE
  8
0
 10
13.9172
 20
66.3519
 11
13.95
 21
66.04
  0
LINE
  8
0
 10
13.95
 20
66.04
 11
13.9172
 21
65.7281
  0
LINE
  8
0
 10
13.9172
 20
65.7281
 11
13.8203
 21
65.4299
  0
LINE
  8
0
 10
13.8203
 20
65.4299
 11
13.6635
 21
65.1583
  0
LINE
  8
0
 10
13.6635
 20
65.1583
 11
13.4537
 21
64.9253
  0
LINE
  8
0
 10
13.4537
 20
64.9253
 11
13.2
 21
64.741
  0
LINE
  8
0
 10
13.2
 20
64.741
 11
12.9135
 21
64.6134
  0
LINE
  8
0
 10
12.9135
 20
64.6134
 11
12.6068
 21
64.5482
  0
LINE
  8
0
 10
12.6068
 20
64.5482
 11
12.2932
 21
64.5482
  0
LINE
  8
0
 10
85.8732
 20
64.5482
 11
85.5665
 21
64.6134
  0
LINE
  8
0
 10
85.5665
 20
64.6134
 11
85.28
 21
64.741
  0
LINE
  8
0
 10
85.28
 20
64.741
 11
85.0263
 21
64.9253
  0
LINE
  8
0
 10
85.0263
 20
64.9253
 11
84.8165
 21
65.1583
  0
LINE
  8
0
 10
84.8165
 20
65.1583
 11
84.6597
 21
65.4299
  0
LINE
  8
0
 10
84.6597
 20
65.4299
 11
84.5628
 21
65.7281
  0
LINE
  8
0
 10
84.5628
 20
65.7281
 11
84.53
 21
66.04
  0
LINE
  8
0
 10
84.53
 20
66.04
 11
84.5628
 21
66.3519
  0
LINE
  8
0
 10
84.5628
 20
66.3519
 11
84.6597
 21
66.6501
  0
LINE
  8
0
 10
84.6597
 20
66.6501
 11
84.8165
 21
66.9217
  0
LINE
  8
0
 10
84.8165
 20
66.9217
 11
85.0263
 21
67.1547
  0
LINE
  8
0
 10
85.0263
 20
67.1547
 11
85.28
 21
67.339
  0
LINE
  8
0
 10
85.28
 20
67.339
 11
85.5665
 21
67.4666
  0
LINE
  8
0
 10
85.5665
 20
67.4666
 11
85.8732
 21
67.5318
  0
LINE
  8
0
 10
85.8732
 20
67.5318
 11
86.1868
 21
67.5318
  0
LINE
  8
0
 10
86.1868
 20
67.5318
 11
86.4935
 21
67.4666
  0
LINE
  8
0
 10
86.4935
 20
67.4666
 11
86.78
 21
67.339
  0
LINE
  8
0
 10
86.78
 20
67.339
 11
87.0337
 21
67.1547
  0
LINE
  8
0
 10
87.0337
 20
67.1547
 11
87.2435
 21
66.9217
  0
LINE
  8
0
 10
87.2435
 20
66.9217
 11
87.4003
 21
66.6501
  0
LINE
  8
0
 10
87.4003
 20
66.6501
 11
87.4972
 21
66.3519
  0
LINE
  8
0
 10
87.4972
 20
66.3519
 11
87.53
 21
66.04
  0
LINE
  8
0
 10
87.53
 20
66.04
 11
87.4972
 21
65.7281
  0
LINE
  8
0
 10
87.4972
 20
65.7281
 11
87.4003
 21
65.4299
  0
LINE
  8
0
 10
87.4003
 20
65.4299
 11
87.2435
 21
65.1583
  0
LINE
  8
0
 10
87.2435
 20
65.1583
 11
87.0337
 21
64.9253
  0
LINE
  8
0
 10
87.0337
 20
64.9253
 11
86.78
 21
64.741
  0
LINE
  8
0
 10
86.78
 20
64.741
 11
86.4935
 21
64.6134
  0
LINE
  8
0
 10
86.4935
 20
64.6134
 11
86.1868
 21
64.5482
  0
LINE
  8
0
 10
86.1868
 20
64.5482
 11
85.8732
 21
64.5482
  0
LINE
  8
0
 10
22.0741
 20
53.6642
 11
21.3584
 21
53.8163
  0
LINE
  8
0
 10
21.3584
 20
53.8163
 11
20.69
 21
54.1139
  0
LINE
  8
0
 10
20.69
 20
54.1139
 11
20.098
 21
54.544
  0
LINE
  8
0
 10
20.098
 20
54.544
 11
19.6084
 21
55.0877
  0
LINE
  8
0
 10
19.6084
 20
55.0877
 11
19.2426
 21
55.7214
  0
LINE
  8
0
 10
19.2426
 20
55.7214
 11
19.0165
 21
56.4173
  0
LINE
  8
0
 10
19.0165
 20
56.4173
 11
18.94
 21
57.145
  0
LINE
  8
0
 10
18.94
 20
57.145
 11
19.0165
 21
57.8727
  0
LINE
  8
0
 10
19.0165
 20
57.8727
 11
19.2426
 21
58.5686
  0
LINE
  8
0
 10
19.2426
 20
58.5686
 11
19.6084
 21
59.2022
  0
LINE
  8
0
 10
19.6084
 20
59.2022
 11
20.098
 21
59.746
  0
LINE
  8
0
 10
20.098
 20
59.746
 11
20.69
 21
60.1761
  0
LINE
  8
0
 10
20.69
 20
60.1761
 11
21.3584
 21
60.4737
  0
LINE
  8
0
 10
21.3584
 20
60.4737
 11
22.0741
 21
60.6258
  0
LINE
  8
0
 10
22.0741
 20
60.6258
 11
22.8058
 21
60.6258
  0
LINE
  8
0
 10
22.8058
 20
60.6258
 11
23.5215
 21
60.4737
  0
LINE
  8
0
 10
23.5215
 20
60.4737
 11
24.19
 21
60.1761
  0
LINE
  8
0
 10
24.19
 20
60.1761
 11
24.782
 21
59.746
  0
LINE
  8
0
 10
24.782
 20
59.746
 11
25.2715
 21
59.2022
  0
LINE
  8
0
 10
25.2715
 20
59.2022
 11
25.6374
 21
58.5686
  0
LINE
  8
0
 10
25.6374
 20
58.5686
 11
25.8635
 21
57.8727
  0
LINE
  8
0
 10
25.8635
 20
57.8727
 11
25.94
 21
57.145
  0
LINE
  8
0
 10
25.94
 20
57.145
 11
25.8635
 21
56.4173
  0
LINE
  8
0
 10
25.8635
 20
56.4173
 11
25.6374
 21
55.7214
  0
LINE
  8
0
 10
25.6374
 20
55.7214
 11
25.2715
 21
55.0877
  0
LINE
  8
0
 10
25.2715
 20
55.0877
 11
24.782
 21
54.544
  0
LINE
  8
0
 10
24.782
 20
54.544
 11
24.19
 21
54.1139
  0
LINE
  8
0
 10
24.19
 20
54.1139
 11
23.5215
 21
53.8163
  0
LINE
  8
0
 10
23.5215
 20
53.8163
 11
22.8058
 21
53.6642
  0
LINE
  8
0
 10
22.8058
 20
53.6642
 11
22.0741
 21
53.6642
  0
LINE
  8
0
 10
39.8141
 20
53.6642
 11
39.0984
 21
53.8163
  0
LINE
  8
0
 10
39.0984
 20
53.8163
 11
38.43
 21
54.1139
  0
LINE
  8
0
 10
38.43
 20
54.1139
 11
37.838
 21
54.544
  0
LINE
  8
0
 10
37.838
 20
54.544
 11
37.3484
 21
55.0877
  0
LINE
  8
0
 10
37.3484
 20
55.0877
 11
36.9826
 21
55.7214
  0
LINE
  8
0
 10
36.9826
 20
55.7214
 11
36.7565
 21
56.4173
  0
LINE
  8
0
 10
36.7565
 20
56.4173
 11
36.68
 21
57.145
  0
LINE
  8
0
 10
36.68
 20
57.145
 11
36.7565
 21
57.8727
  0
LINE
  8
0
 10
36.7565
 20
57.8727
 11
36.9826
 21
58.5686
  0
LINE
  8
0
 10
36.9826
 20
58.5686
 11
37.3484
 21
59.2022
  0
LINE
  8
0
 10
37.3484
 20
59.2022
 11
37.838
 21
59.746
  0
LINE
  8
0
 10
37.838
 20
59.746
 11
38.43
 21
60.1761
  0
LINE
  8
0
 10
38.43
 20
60.1761
 11
39.0984
 21
60.4737
  0
LINE
  8
0
 10
39.0984
 20
60.4737
 11
39.8141
 21
60.6258
  0
LINE
  8
0
 10
39.8141
 20
60.6258
 11
40.5458
 21
60.6258
  0
LINE
  8
0
 10
40.5458
 20
60.6258
 11
41.2616
 21
60.4737
  0
LINE
  8
0
 10
41.2616
 20
60.4737
 11
41.93
 21
60.1761
  0
LINE
  8
0
 10
41.93
 20
60.1761
 11
42.5219
 21
59.746
  0
LINE
  8
0
 10
42.5219
 20
59.746
 11
43.0116
 21
59.2022
  0
LINE
  8
0
 10
43.0116
 20
59.2022
 11
43.3774
 21
58.5686
  0
LINE
  8
0
 10
43.3774
 20
58.5686
 11
43.6035
 21
57.8727
  0
LINE
  8
0
 10
43.6035
 20
57.8727
 11
43.68
 21
57.145
  0
LINE
  8
0
 10
43.68
 20
57.145
 11
43.6035
 21
56.4173
  0
LINE
  8
0
 10
43.6035
 20
56.4173
 11
43.3774
 21
55.7214
  0
LINE
  8
0
 10
43.3774
 20
55.7214
 11
43.0116
 21
55.0877
  0
LINE
  8
0
 10
43.0116
 20
55.0877
 11
42.5219
 21
54.544
  0
LINE
  8
0
 10
42.5219
 20
54.544
 11
41.93
 21
54.1139
  0
LINE
  8
0
 10
41.93
 20
54.1139
 11
41.2616
 21
53.8163
  0
LINE
  8
0
 10
41.2616
 20
53.8163
 11
40.5458
 21
53.6642
  0
LINE
  8
0
 10
40.5458
 20
53.6642
 11
39.8141
 21
53.6642
  0
LINE
  8
0
 10
57.5541
 20
53.6642
 11
56.8384
 21
53.8163
  0
LINE
  8
0
 10
56.8384
 20
53.8163
 11
56.17
 21
54.1139
  0
LINE
  8
0
 10
56.17
 20
54.1139
 11
55.578
 21
54.544
  0
LINE
  8
0
 10
55.578
 20
54.544
 11
55.0884
 21
55.0877
  0
LINE
  8
0
 10
55.0884
 20
55.0877
 11
54.7226
 21
55.7214
  0
LINE
  8
0
 10
54.7226
 20
55.7214
 11
54.4965
 21
56.4173
  0
LINE
  8
0
 10
54.4965
 20
56.4173
 11
54.42
 21
57.145
  0
LINE
  8
0
 10
54.42
 20
57.145
 11
54.4965
 21
57.8727
  0
LINE
  8
0
 10
54.4965
 20
57.8727
 11
54.7226
 21
58.5686
  0
LINE
  8
0
 10
54.7226
 20
58.5686
 11
55.0884
 21
59.2022
  0
LINE
  8
0
 10
55.0884
 20
59.2022
 11
55.578
 21
59.746
  0
LINE
  8
0
 10
55.578
 20
59.746
 11
56.17
 21
60.1761
  0
LINE
  8
0
 10
56.17
 20
60.1761
 11
56.8384
 21
60.4737
  0
LINE
  8
0
 10
56.8384
 20
60.4737
 11
57.5541
 21
60.6258
  0
LINE
  8
0
 10
57.5541
 20
60.6258
 11
58.2858
 21
60.6258
  0
LINE
  8
0
 10
58.2858
 20
60.6258
 11
59.0016
 21
60.4737
  0
LINE
  8
0
 10
59.0016
 20
60.4737
 11
59.67
 21
60.1761
  0
LINE
  8
0
 10
59.67
 20
60.1761
 11
60.2619
 21
59.746
  0
LINE
  8
0
 10
60.2619
 20
59.746
 11
60.7516
 21
59.2022
  0
LINE
  8
0
 10
60.7516
 20
59.2022
 11
61.1174
 21
58.5686
  0
LINE
  8
0
 10
61.1174
 20
58.5686
 11
61.3435
 21
57.8727
  0
LINE
  8
0
 10
61.3435
 20
57.8727
 11
61.42
 21
57.145
  0
LINE
  8
0
 10
61.42
 20
57.145
 11
61.3435
 21
56.4173
  0
LINE
  8
0
 10
61.3435
 20
56.4173
 11
61.1174
 21
55.7214
  0
LINE
  8
0
 10
61.1174
 20
55.7214
 11
60.7516
 21
55.0877
  0
LINE
  8
0
 10
60.7516
 20
55.0877
 11
60.2619
 21
54.544
  0
LINE
  8
0
 10
60.2619
 20
54.544
 11
59.67
 21
54.1139
  0
LINE
  8
0
 10
59.67
 20
54.1139
 11
59.0016
 21
53.8163
  0
LINE
  8
0
 10
59.0016
 20
53.8163
 11
58.2858
 21
53.6642
  0
LINE
  8
0
 10
58.2858
 20
53.6642
 11
57.5541
 21
53.6642
  0
LINE
  8
0
 10
75.3341
 20
53.6642
 11
74.6184
 21
53.8163
  0
LINE
  8
0
 10
74.6184
 20
53.8163
 11
73.95
 21
54.1139
  0
LINE
  8
0
 10
73.95
 20
54.1139
 11
73.358
 21
54.544
  0
LINE
  8
0
 10
73.358
 20
54.544
 11
72.8684
 21
55.0877
  0
LINE
  8
0
 10
72.8684
 20
55.0877
 11
72.5026
 21
55.7214
  0
LINE
  8
0
 10
72.5026
 20
55.7214
 11
72.2765
 21
56.4173
  0
LINE
  8
0
 10
72.2765
 20
56.4173
 11
72.2
 21
57.145
  0
LINE
  8
0
 10
72.2
 20
57.145
 11
72.2765
 21
57.8727
  0
LINE
  8
0
 10
72.2765
 20
57.8727
 11
72.5026
 21
58.5686
  0
LINE
  8
0
 10
72.5026
 20
58.5686
 11
72.8684
 21
59.2022
  0
LINE
  8
0
 10
72.8684
 20
59.2022
 11
73.358
 21
59.746
  0
LINE
  8
0
 10
73.358
 20
59.746
 11
73.95
 21
60.1761
  0
LINE
  8
0
 10
73.95
 20
60.1761
 11
74.6184
 21
60.4737
  0
LINE
  8
0
 10
74.6184
 20
60.4737
 11
75.3341
 21
60.6258
  0
LINE
  8
0
 10
75.3341
 20
60.6258
 11
76.0658
 21
60.6258
  0
LINE
  8
0
 10
76.0658
 20
60.6258
 11
76.7816
 21
60.4737
  0
LINE
  8
0
 10
76.7816
 20
60.4737
 11
77.45
 21
60.1761
  0
LINE
  8
0
 10
77.45
 20
60.1761
 11
78.0419
 21
59.746
  0
LINE
  8
0
 10
78.0419
 20
59.746
 11
78.5316
 21
59.2022
  0
LINE
  8
0
 10
78.5316
 20
59.2022
 11
78.8974
 21
58.5686
  0
LINE
  8
0
 10
78.8974
 20
58.5686
 11
79.1235
 21
57.8727
  0
LINE
  8
0
 10
79.1235
 20
57.8727
 11
79.2
 21
57.145
  0
LINE
  8
0
 10
79.2
 20
57.145
 11
79.1235
 21
56.4173
  0
LINE
  8
0
 10
79.1235
 20
56.4173
 11
78.8974
 21
55.7214
  0
LINE
  8
0
 10
78.8974
 20
55.7214
 11
78.5316
 21
55.0877
  0
LINE
  8
0
 10
78.5316
 20
55.0877
 11
78.0419
 21
54.544
  0
LINE
  8
0
 10
78.0419
 20
54.544
 11
77.45
 21
54.1139
  0
LINE
  8
0
 10
77.45
 20
54.1139
 11
76.7816
 21
53.8163
  0
LINE
  8
0
 10
76.7816
 20
53.8163
 11
76.0658
 21
53.6642
  0
LINE
  8
0
 10
76.0658
 20
53.6642
 11
75.3341
 21
53.6642
  0
LINE
  8
0
 10
22.0741
 20
35.8992
 11
21.3584
 21
36.0513
  0
LINE
  8
0
 10
21.3584
 20
36.0513
 11
20.69
 21
36.3489
  0
LINE
  8
0
 10
20.69
 20
36.3489
 11
20.098
 21
36.779
  0
LINE
  8
0
 10
20.098
 20
36.779
 11
19.6084
 21
37.3227
  0
LINE
  8
0
 10
19.6084
 20
37.3227
 11
19.2426
 21
37.9564
  0
LINE
  8
0
 10
19.2426
 20
37.9564
 11
19.0165
 21
38.6523
  0
LINE
  8
0
 10
19.0165
 20
38.6523
 11
18.94
 21
39.38
  0
LINE
  8
0
 10
18.94
 20
39.38
 11
19.0165
 21
40.1077
  0
LINE
  8
0
 10
19.0165
 20
40.1077
 11
19.2426
 21
40.8036
  0
LINE
  8
0
 10
19.2426
 20
40.8036
 11
19.6084
 21
41.4372
  0
LINE
  8
0
 10
19.6084
 20
41.4372
 11
20.098
 21
41.981
  0
LINE
  8
0
 10
20.098
 20
41.981
 11
20.69
 21
42.4111
  0
LINE
  8
0
 10
20.69
 20
42.4111
 11
21.3584
 21
42.7087
  0
LINE
  8
0
 10
21.3584
 20
42.7087
 11
22.0741
 21
42.8608
  0
LINE
  8
0
 10
22.0741
 20
42.8608
 11
22.8058
 21
42.8608
  0
LINE
  8
0
 10
22.8058
 20
42.8608
 11
23.5215
 21
42.7087
  0
LINE
  8
0
 10
23.5215
 20
42.7087
 11
24.19
 21
42.4111
  0
LINE
  8
0
 10
24.19
 20
42.4111
 11
24.782
 21
41.981
  0
LINE
  8
0
 10
24.782
 20
41.981
 11
25.2715
 21
41.4372
  0
LINE
  8
0
 10
25.2715
 20
41.4372
 11
25.6374
 21
40.8036
  0
LINE
  8
0
 10
25.6374
 20
40.8036
 11
25.8635
 21
40.1077
  0
LINE
  8
0
 10
25.8635
 20
40.1077
 11
25.94
 21
39.38
  0
LINE
  8
0
 10
25.94
 20
39.38
 11
25.8635
 21
38.6523
  0
LINE
  8
0
 10
25.8635
 20
38.6523
 11
25.6374
 21
37.9564
  0
LINE
  8
0
 10
25.6374
 20
37.9564
 11
25.2715
 21
37.3227
  0
LINE
  8
0
 10
25.2715
 20
37.3227
 11
24.782
 21
36.779
  0
LINE
  8
0
 10
24.782
 20
36.779
 11
24.19
 21
36.3489
  0
LINE
  8
0
 10
24.19
 20
36.3489
 11
23.5215
 21
36.0513
  0
LINE
  8
0
 10
23.5215
 20
36.0513
 11
22.8058
 21
35.8992
  0
LINE
  8
0
 10
22.8058
 20
35.8992
 11
22.0741
 21
35.8992
  0
LINE
  8
0
 10
39.8141
 20
35.8992
 11
39.0984
 21
36.0513
  0
LINE
  8
0
 10
39.0984
 20
36.0513
 11
38.43
 21
36.3489
  0
LINE
  8
0
 10
38.43
 20
36.3489
 11
37.838
 21
36.779
  0
LINE
  8
0
 10
37.838
 20
36.779
 11
37.3484
 21
37.3227
  0
LINE
  8
0
 10
37.3484
 20
37.3227
 11
36.9826
 21
37.9564
  0
LINE
  8
0
 10
36.9826
 20
37.9564
 11
36.7565
 21
38.6523
  0
LINE
  8
0
 10
36.7565
 20
38.6523
 11
36.68
 21
39.38
  0
LINE
  8
0
 10
36.68
 20
39.38
 11
36.7565
 21
40.1077
  0
LINE
  8
0
 10
36.7565
 20
40.1077
 11
36.9826
 21
40.8036
  0
LINE
  8
0
 10
36.9826
 20
40.8036
 11
37.3484
 21
41.4372
  0
LINE
  8
0
 10
37.3484
 20
41.4372
 11
37.838
 21
41.981
  0
LINE
  8
0
 10
37.838
 20
41.981
 11
38.43
 21
42.4111
  0
LINE
  8
0
 10
38.43
 20
42.4111
 11
39.0984
 21
42.7087
  0
LINE
  8
0
 10
39.0984
 20
42.7087
 11
39.8141
 21
42.8608
  0
LINE
  8
0
 10
39.8141
 20
42.8608
 11
40.5458
 21
42.8608
  0
LINE
  8
0
 10
40.5458
 20
42.8608
 11
41.2616
 21
42.7087
  0
LINE
  8
0
 10
41.2616
 20
42.7087
 11
41.93
 21
42.4111
  0
LINE
  8
0
 10
41.93
 20
42.4111
 11
42.5219
 21
41.981
  0
LINE
  8
0
 10
42.5219
 20
41.981
 11
43.0116
 21
41.4372
  0
LINE
  8
0
 10
43.0116
 20
41.4372
 11
43.3774
 21
40.8036
  0
LINE
  8
0
 10
43.3774
 20
40.8036
 11
43.6035
 21
40.1077
  0
LINE
  8
0
 10
43.6035
 20
40.1077
 11
43.68
 21
39.38
  0
LINE
  8
0
 10
43.68
 20
39.38
 11
43.6035
 21
38.6523
  0
LINE
  8
0
 10
43.6035
 20
38.6523
 11
43.3774
 21
37.9564
  0
LINE
  8
0
 10
43.3774
 20
37.9564
 11
43.0116
 21
37.3227
  0
LINE
  8
0
 10
43.0116
 20
37.3227
 11
42.5219
 21
36.779
  0
LINE
  8
0
 10
42.5219
 20
36.779
 11
41.93
 21
36.3489
  0
LINE
  8
0
 10
41.93
 20
36.3489
 11
41.2616
 21
36.0513
  0
LINE
  8
0
 10
41.2616
 20
36.0513
 11
40.5458
 21
35.8992
  0
LINE
  8
0
 10
40.5458
 20
35.8992
 11
39.8141
 21
35.8992
  0
LINE
  8
0
 10
57.5541
 20
35.8992
 11
56.8384
 21
36.0513
  0
LINE
  8
0
 10
56.8384
 20
36.0513
 11
56.17
 21
36.3489
  0
LINE
  8
0
 10
56.17
 20
36.3489
 11
55.578
 21
36.779
  0
LINE
  8
0
 10
55.578
 20
36.779
 11
55.0884
 21
37.3227
  0
LINE
  8
0
 10
55.0884
 20
37.3227
 11
54.7226
 21
37.9564
  0
LINE
  8
0
 10
54.7226
 20
37.9564
 11
54.4965
 21
38.6523
  0
LINE
  8
0
 10
54.4965
 20
38.6523
 11
54.42
 21
39.38
  0
LINE
  8
0
 10
54.42
 20
39.38
 11
54.4965
 21
40.1077
  0
LINE
  8
0
 10
54.4965
 20
40.1077
 11
54.7226
 21
40.8036
  0
LINE
  8
0
 10
54.7226
 20
40.8036
 11
55.0884
 21
41.4372
  0
LINE
  8
0
 10
55.0884
 20
41.4372
 11
55.578
 21
41.981
  0
LINE
  8
0
 10
55.578
 20
41.981
 11
56.17
 21
42.4111
  0
LINE
  8
0
 10
56.17
 20
42.4111
 11
56.8384
 21
42.7087
  0
LINE
  8
0
 10
56.8384
 20
42.7087
 11
57.5541
 21
42.8608
  0
LINE
  8
0
 10
57.5541
 20
42.8608
 11
58.2858
 21
42.8608
  0
LINE
  8
0
 10
58.2858
 20
42.8608
 11
59.0016
 21
42.7087
  0
LINE
  8
0
 10
59.0016
 20
42.7087
 11
59.67
 21
42.4111
  0
LINE
  8
0
 10
59.67
 20
42.4111
 11
60.2619
 21
41.981
  0
LINE
  8
0
 10
60.2619
 20
41.981
 11
60.7516
 21
41.4372
  0
LINE
  8
0
 10
60.7516
 20
41.4372
 11
61.1174
 21
40.8036
  0
LINE
  8
0
 10
61.1174
 20
40.8036
 11
61.3435
 21
40.1077
  0
LINE
  8
0
 10
61.3435
 20
40.1077
 11
61.42
 21
39.38
  0
LINE
  8
0
 10
61.42
 20
39.38
 11
61.3435
 21
38.6523
  0
LINE
  8
0
 10
61.3435
 20
38.6523
 11
61.1174
 21
37.9564
  0
LINE
  8
0
 10
61.1174
 20
37.9564
 11
60.7516
 21
37.3227
  0
LINE
  8
0
 10
60.7516
 20
37.3227
 11
60.2619
 21
36.779
  0
LINE
  8
0
 10
60.2619
 20
36.779
 11
59.67
 21
36.3489
  0
LINE
  8
0
 10
59.67
 20
36.3489
 11
59.0016
 21
36.0513
  0
LINE
  8
0
 10
59.0016
 20
36.0513
 11
58.2858
 21
35.8992
  0
LINE
  8
0
 10
58.2858
 20
35.8992
 11
57.5541
 21
35.8992
  0
LINE
  8
0
 10
75.3341
 20
35.8992
 11
74.6184
 21
36.0513
  0
LINE
  8
0
 10
74.6184
 20
36.0513
 11
73.95
 21
36.3489
  0
LINE
  8
0
 10
73.95
 20
36.3489
 11
73.358
 21
36.779
  0
LINE
  8
0
 10
73.358
 20
36.779
 11
72.8684
 21
37.3227
  0
LINE
  8
0
 10
72.8684
 20
37.3227
 11
72.5026
 21
37.9564
  0
LINE
  8
0
 10
72.5026
 20
37.9564
 11
72.2765
 21
38.6523
  0
LINE
  8
0
 10
72.2765
 20
38.6523
 11
72.2
 21
39.38
  0
LINE
  8
0
 10
72.2
 20
39.38
 11
72.2765
 21
40.1077
  0
LINE
  8
0
 10
72.2765
 20
40.1077
 11
72.5026
 21
40.8036
  0
LINE
  8
0
 10
72.5026
 20
40.8036
 11
72.8684
 21
41.4372
  0
LINE
  8
0
 10
72.8684
 20
41.4372
 11
73.358
 21
41.981
  0
LINE
  8
0
 10
73.358
 20
41.981
 11
73.95
 21
42.4111
  0
LINE
  8
0
 10
73.95
 20
42.4111
 11
74.6184
 21
42.7087
  0
LINE
  8
0
 10
74.6184
 20
42.7087
 11
75.3341
 21
42.8608
  0
LINE
  8
0
 10
75.3341
 20
42.8608
 11
76.0658
 21
42.8608
  0
LINE
  8
0
 10
76.0658
 20
42.8608
 11
76.7816
 21
42.7087
  0
LINE
  8
0
 10
76.7816
 20
42.7087
 11
77.45
 21
42.4111
  0
LINE
  8
0
 10
77.45
 20
42.4111
 11
78.0419
 21
41.981
  0
LINE
  8
0
 10
78.0419
 20
41.981
 11
78.5316
 21
41.4372
  0
LINE
  8
0
 10
78.5316
 20
41.4372
 11
78.8974
 21
40.8036
  0
LINE
  8
0
 10
78.8974
 20
40.8036
 11
79.1235
 21
40.1077
  0
LINE
  8
0
 10
79.1235
 20
40.1077
 11
79.2
 21
39.38
  0
LINE
  8
0
 10
79.2
 20
39.38
 11
79.1235
 21
38.6523
  0
LINE
  8
0
 10
79.1235
 20
38.6523
 11
78.8974
 21
37.9564
  0
LINE
  8
0
 10
78.8974
 20
37.9564
 11
78.5316
 21
37.3227
  0
LINE
  8
0
 10
78.5316
 20
37.3227
 11
78.0419
 21
36.779
  0
LINE
  8
0
 10
78.0419
 20
36.779
 11
77.45
 21
36.3489
  0
LINE
  8
0
 10
77.45
 20
36.3489
 11
76.7816
 21
36.0513
  0
LINE
  8
0
 10
76.7816
 20
36.0513
 11
76.0658
 21
35.8992
  0
LINE
  8
0
 10
76.0658
 20
35.8992
 11
75.3341
 21
35.8992
  0
LINE
  8
0
 10
12.2932
 20
28.9882
 11
11.9865
 21
29.0534
  0
LINE
  8
0
 10
11.9865
 20
29.0534
 11
11.7
 21
29.181
  0
LINE
  8
0
 10
11.7
 20
29.181
 11
11.4463
 21
29.3653
  0
LINE
  8
0
 10
11.4463
 20
29.3653
 11
11.2365
 21
29.5983
  0
LINE
  8
0
 10
11.2365
 20
29.5983
 11
11.0797
 21
29.8699
  0
LINE
  8
0
 10
11.0797
 20
29.8699
 11
10.9828
 21
30.1681
  0
LINE
  8
0
 10
10.9828
 20
30.1681
 11
10.95
 21
30.48
  0
LINE
  8
0
 10
10.95
 20
30.48
 11
10.9828
 21
30.7919
  0
LINE
  8
0
 10
10.9828
 20
30.7919
 11
11.0797
 21
31.0901
  0
LINE
  8
0
 10
11.0797
 20
31.0901
 11
11.2365
 21
31.3617
  0
LINE
  8
0
 10
11.2365
 20
31.3617
 11
11.4463
 21
31.5947
  0
LINE
  8
0
 10
11.4463
 20
31.5947
 11
11.7
 21
31.779
  0
LINE
  8
0
 10
11.7
 20
31.779
 11
11.9865
 21
31.9066
  0
LINE
  8
0
 10
11.9865
 20
31.9066
 11
12.2932
 21
31.9718
  0
LINE
  8
0
 10
12.2932
 20
31.9718
 11
12.6068
 21
31.9718
  0
LINE
  8
0
 10
12.6068
 20
31.9718
 11
12.9135
 21
31.9066
  0
LINE
  8
0
 10
12.9135
 20
31.9066
 11
13.2
 21
31.779
  0
LINE
  8
0
 10
13.2
 20
31.779
 11
13.4537
 21
31.5947
  0
LINE
  8
0
 10
13.4537
 20
31.5947
 11
13.6635
 21
31.3617
  0
LINE
  8
0
 10
13.6635
 20
31.3617
 11
13.8203
 21
31.0901
  0
LINE
  8
0
 10
13.8203
 20
31.0901
 11
13.9172
 21
30.7919
  0
LINE
  8
0
 10
13.9172
 20
30.7919
 11
13.95
 21
30.48
  0
LINE
  8
0
 10
13.95
 20
30.48
 11
13.9172
 21
30.1681
  0
LINE
  8
0
 10
13.9172
 20
30.1681
 11
13.8203
 21
29.8699
  0
LINE
  8
0
 10
13.8203
 20
29.8699
 11
13.6635
 21
29.5983
  0
LINE
  8
0
 10
13.6635
 20
29.5983
 11
13.4537
 21
29.3653
  0
LINE
  8
0
 10
13.4537
 20
29.3653
 11
13.2
 21
29.181
  0
LINE
  8
0
 10
13.2
 20
29.181
 11
12.9135
 21
29.0534
  0
LINE
  8
0
 10
12.9135
 20
29.0534
 11
12.6068
 21
28.9882
  0
LINE
  8
0
 10
12.6068
 20
28.9882
 11
12.2932
 21
28.9882
  0
LINE
  8
0
 10
85.8732
 20
28.9882
 11
85.5665
 21
29.0534
  0
LINE
  8
0
 10
85.5665
 20
29.0534
 11
85.28
 21
29.181
  0
LINE
  8
0
 10
85.28
 20
29.181
 11
85.0263
 21
29.3653
  0
LINE
  8
0
 10
85.0263
 20
29.3653
 11
84.8165
 21
29.5983
  0
LINE
  8
0
 10
84.8165
 20
29.5983
 11
84.6597
 21
29.8699
  0
LINE
  8
0
 10
84.6597
 20
29.8699
 11
84.5628
 21
30.1681
  0
LINE
  8
0
 10
84.5628
 20
30.1681
 11
84.53
 21
30.48
  0
LINE
  8
0
 10
84.53
 20
30.48
 11
84.5628
 21
30.7919
  0
LINE
  8
0
 10
84.5628
 20
30.7919
 11
84.6597
 21
31.0901
  0
LINE
  8
0
 10
84.6597
 20
31.0901
 11
84.8165
 21
31.3617
  0
LINE
  8
0
 10
84.8165
 20
31.3617
 11
85.0263
 21
31.5947
  0
LINE
  8
0
 10
85.0263
 20
31.5947
 11
85.28
 21
31.779
  0
LINE
  8
0
 10
85.28
 20
31.779
 11
85.5665
 21
31.9066
  0
LINE
  8
0
 10
85.5665
 20
31.9066
 11
85.8732
 21
31.9718
  0
LINE
  8
0
 10
85.8732
 20
31.9718
 11
86.1868
 21
31.9718
  0
LINE
  8
0
 10
86.1868
 20
31.9718
 11
86.4935
 21
31.9066
  0
LINE
  8
0
 10
86.4935
 20
31.9066
 11
86.78
 21
31.779
  0
LINE
  8
0
 10
86.78
 20
31.779
 11
87.0337
 21
31.5947
  0
LINE
  8
0
 10
87.0337
 20
31.5947
 11
87.2435
 21
31.3617
  0
LINE
  8
0
 10
87.2435
 20
31.3617
 11
87.4003
 21
31.0901
  0
LINE
  8
0
 10
87.4003
 20
31.0901
 11
87.4972
 21
30.7919
  0
LINE
  8
0
 10
87.4972
 20
30.7919
 11
87.53
 21
30.48
  0
LINE
  8
0
 10
87.53
 20
30.48
 11
87.4972
 21
30.1681
  0
LINE
  8
0
 10
87.4972
 20
30.1681
 11
87.4003
 21
29.8699
  0
LINE
  8
0
 10
87.4003
 20
29.8699
 11
87.2435
 21
29.5983
  0
LINE
  8
0
 10
87.2435
 20
29.5983
 11
87.0337
 21
29.3653
  0
LINE
  8
0
 10
87.0337
 20
29.3653
 11
86.78
 21
29.181
  0
LINE
  8
0
 10
86.78
 20
29.181
 11
86.4935
 21
29.0534
  0
LINE
  8
0
 10
86.4935
 20
29.0534
 11
86.1868
 21
28.9882
  0
LINE
  8
0
 10
86.1868
 20
28.9882
 11
85.8732
 21
28.9882
  0
LINE
  8
0
 10
22.0741
 20
18.1192
 11
21.3584
 21
18.2713
  0
LINE
  8
0
 10
21.3584
 20
18.2713
 11
20.69
 21
18.5689
  0
LINE
  8
0
 10
20.69
 20
18.5689
 11
20.098
 21
18.999
  0
LINE
  8
0
 10
20.098
 20
18.999
 11
19.6084
 21
19.5427
  0
LINE
  8
0
 10
19.6084
 20
19.5427
 11
19.2426
 21
20.1764
  0
LINE
  8
0
 10
19.2426
 20
20.1764
 11
19.0165
 21
20.8723
  0
LINE
  8
0
 10
19.0165
 20
20.8723
 11
18.94
 21
21.6
  0
LINE
  8
0
 10
18.94
 20
21.6
 11
19.0165
 21
22.3277
  0
LINE
  8
0
 10
19.0165
 20
22.3277
 11
19.2426
 21
23.0236
  0
LINE
  8
0
 10
19.2426
 20
23.0236
 11
19.6084
 21
23.6572
  0
LINE
  8
0
 10
19.6084
 20
23.6572
 11
20.098
 21
24.201
  0
LINE
  8
0
 10
20.098
 20
24.201
 11
20.69
 21
24.6311
  0
LINE
  8
0
 10
20.69
 20
24.6311
 11
21.3584
 21
24.9287
  0
LINE
  8
0
 10
21.3584
 20
24.9287
 11
22.0741
 21
25.0808
  0
LINE
  8
0
 10
22.0741
 20
25.0808
 11
22.8058
 21
25.0808
  0
LINE
  8
0
 10
22.8058
 20
25.0808
 11
23.5215
 21
24.9287
  0
LINE
  8
0
 10
23.5215
 20
24.9287
 11
24.19
 21
24.6311
  0
LINE
  8
0
 10
24.19
 20
24.6311
 11
24.782
 21
24.201
  0
LINE
  8
0
 10
24.782
 20
24.201
 11
25.2715
 21
23.6572
  0
LINE
  8
0
 10
25.2715
 20
23.6572
 11
25.6374
 21
23.0236
  0
LINE
  8
0
 10
25.6374
 20
23.0236
 11
25.8635
 21
22.3277
  0
LINE
  8
0
 10
25.8635
 20
22.3277
 11
25.94
 21
21.6
  0
LINE
  8
0
 10
25.94
 20
21.6
 11
25.8635
 21
20.8723
  0
LINE
  8
0
 10
25.8635
 20
20.8723
 11
25.6374
 21
20.1764
  0
LINE
  8
0
 10
25.6374
 20
20.1764
 11
25.2715
 21
19.5427
  0
LINE
  8
0
 10
25.2715
 20
19.5427
 11
24.782
 21
18.999
  0
LINE
  8
0
 10
24.782
 20
18.999
 11
24.19
 21
18.5689
  0
LINE
  8
0
 10
24.19
 20
18.5689
 11
23.5215
 21
18.2713
  0
LINE
  8
0
 10
23.5215
 20
18.2713
 11
22.8058
 21
18.1192
  0
LINE
  8
0
 10
22.8058
 20
18.1192
 11
22.0741
 21
18.1192
  0
LINE
  8
0
 10
39.8141
 20
18.1192
 11
39.0984
 21
18.2713
  0
LINE
  8
0
 10
39.0984
 20
18.2713
 11
38.43
 21
18.5689
  0
LINE
  8
0
 10
38.43
 20
18.5689
 11
37.838
 21
18.999
  0
LINE
  8
0
 10
37.838
 20
18.999
 11
37.3484
 21
19.5427
  0
LINE
  8
0
 10
37.3484
 20
19.5427
 11
36.9826
 21
20.1764
  0
LINE
  8
0
 10
36.9826
 20
20.1764
 11
36.7565
 21
20.8723
  0
LINE
  8
0
 10
36.7565
 20
20.8723
 11
36.68
 21
21.6
  0
LINE
  8
0
 10
36.68
 20
21.6
 11
36.7565
 21
22.3277
  0
LINE
  8
0
 10
36.7565
 20
22.3277
 11
36.9826
 21
23.0236
  0
LINE
  8
0
 10
36.9826
 20
23.0236
 11
37.3484
 21
23.6572
  0
LINE
  8
0
 10
37.3484
 20
23.6572
 11
37.838
 21
24.201
  0
LINE
  8
0
 10
37.838
 20
24.201
 11
38.43
 21
24.6311
  0
LINE
  8
0
 10
38.43
 20
24.6311
 11
39.0984
 21
24.9287
  0
LINE
  8
0
 10
39.0984
 20
24.9287
 11
39.8141
 21
25.0808
  0
LINE
  8
0
 10
39.8141
 20
25.0808
 11
40.5458
 21
25.0808
  0
LINE
  8
0
 10
40.5458
 20
25.0808
 11
41.2616
 21
24.9287
  0
LINE
  8
0
 10
41.2616
 20
24.9287
 11
41.93
 21
24.6311
  0
LINE
  8
0
 10
41.93
 20
24.6311
 11
42.5219
 21
24.201
  0
LINE
  8
0
 10
42.5219
 20
24.201
 11
43.0116
 21
23.6572
  0
LINE
  8
0
 10
43.0116
 20
23.6572
 11
43.3774
 21
23.0236
  0
LINE
  8
0
 10
43.3774
 20
23.0236
 11
43.6035
 21
22.3277
  0
LINE
  8
0
 10
43.6035
 20
22.3277
 11
43.68
 21
21.6
  0
LINE
  8
0
 10
43.68
 20
21.6
 11
43.6035
 21
20.8723
  0
LINE
  8
0
 10
43.6035
 20
20.8723
 11
43.3774
 21
20.1764
  0
LINE
  8
0
 10
43.3774
 20
20.1764
 11
43.0116
 21
19.5427
  0
LINE
  8
0
 10
43.0116
 20
19.5427
 11
42.5219
 21
18.999
  0
LINE
  8
0
 10
42.5219
 20
18.999
 11
41.93
 21
18.5689
  0
LINE
  8
0
 10
41.93
 20
18.5689
 11
41.2616
 21
18.2713
  0
LINE
  8
0
 10
41.2616
 20
18.2713
 11
40.5458
 21
18.1192
  0
LINE
  8
0
 10
40.5458
 20
18.1192
 11
39.8141
 21
18.1192
  0
LINE
  8
0
 10
57.5541
 20
18.1192
 11
56.8384
 21
18.2713
  0
LINE
  8
0
 10
56.8384
 20
18.2713
 11
56.17
 21
18.5689
  0
LINE
  8
0
 10
56.17
 20
18.5689
 11
55.578
 21
18.999
  0
LINE
  8
0
 10
55.578
 20
18.999
 11
55.0884
 21
19.5427
  0
LINE
  8
0
 10
55.0884
 20
19.5427
 11
54.7226
 21
20.1764
  0
LINE
  8
0
 10
54.7226
 20
20.1764
 11
54.4965
 21
20.8723
  0
LINE
  8
0
 10
54.4965
 20
20.8723
 11
54.42
 21
21.6
  0
LINE
  8
0
 10
54.42
 20
21.6
 11
54.4965
 21
22.3277
  0
LINE
  8
0
 10
54.4965
 20
22.3277
 11
54.7226
 21
23.0236
  0
LINE
  8
0
 10
54.7226
 20
23.0236
 11
55.0884
 21
23.6572
  0
LINE
  8
0
 10
55.0884
 20
23.6572
 11
55.578
 21
24.201
  0
LINE
  8
0
 10
55.578
 20
24.201
 11
56.17
 21
24.6311
  0
LINE
  8
0
 10
56.17
 20
24.6311
 11
56.8384
 21
24.9287
  0
LINE
  8
0
 10
56.8384
 20
24.9287
 11
57.5541
 21
25.0808
  0
LINE
  8
0
 10
57.5541
 20
25.0808
 11
58.2858
 21
25.0808
  0
LINE
  8
0
 10
58.2858
 20
25.0808
 11
59.0016
 21
24.9287
  0
LINE
  8
0
 10
59.0016
 20
24.9287
 11
59.67
 21
24.6311
  0
LINE
  8
0
 10
59.67
 20
24.6311
 11
60.2619
 21
24.201
  0
LINE
  8
0
 10
60.2619
 20
24.201
 11
60.7516
 21
23.6572
  0
LINE
  8
0
 10
60.7516
 20
23.6572
 11
61.1174
 21
23.0236
  0
LINE
  8
0
 10
61.1174
 20
23.0236
 11
61.3435
 21
22.3277
  0
LINE
  8
0
 10
61.3435
 20
22.3277
 11
61.42
 21
21.6
  0
LINE
  8
0
 10
61.42
 20
21.6
 11
61.3435
 21
20.8723
  0
LINE
  8
0
 10
61.3435
 20
20.8723
 11
61.1174
 21
20.1764
  0
LINE
  8
0
 10
61.1174
 20
20.1764
 11
60.7516
 21
19.5427
  0
LINE
  8
0
 10
60.7516
 20
19.5427
 11
60.2619
 21
18.999
  0
LINE
  8
0
 10
60.2619
 20
18.999
 11
59.67
 21
18.5689
  0
LINE
  8
0
 10
59.67
 20
18.5689
 11
59.0016
 21
18.2713
  0
LINE
  8
0
 10
59.0016
 20
18.2713
 11
58.2858
 21
18.1192
  0
LINE
  8
0
 10
58.2858
 20
18.1192
 11
57.5541
 21
18.1192
  0
LINE
  8
0
 10
75.3341
 20
18.1192
 11
74.6184
 21
18.2713
  0
LINE
  8
0
 10
74.6184
 20
18.2713
 11
73.95
 21
18.5689
  0
LINE
  8
0
 10
73.95
 20
18.5689
 11
73.358
 21
18.999
  0
LINE
  8
0
 10
73.358
 20
18.999
 11
72.8684
 21
19.5427
  0
LINE
  8
0
 10
72.8684
 20
19.5427
 11
72.5026
 21
20.1764
  0
LINE
  8
0
 10
72.5026
 20
20.1764
 11
72.2765
 21
20.8723
  0
LINE
  8
0
 10
72.2765
 20
20.8723
 11
72.2
 21
21.6
  0
LINE
  8
0
 10
72.2
 20
21.6
 11
72.2765
 21
22.3277
  0
LINE
  8
0
 10
72.2765
 20
22.3277
 11
72.5026
 21
23.0236
  0
LINE
  8
0
 10
72.5026
 20
23.0236
 11
72.8684
 21
23.6572
  0
LINE
  8
0
 10
72.8684
 20
23.6572
 11
73.358
 21
24.201
  0
LINE
  8
0
 10
73.358
 20
24.201
 11
73.95
 21
24.6311
  0
LINE
  8
0
 10
73.95
 20
24.6311
 11
74.6184
 21
24.9287
  0
LINE
  8
0
 10
74.6184
 20
24.9287
 11
75.3341
 21
25.0808
  0
LINE
  8
0
 10
75.3341
 20
25.0808
 11
76.0658
 21
25.0808
  0
LINE
  8
0
 10
76.0658
 20
25.0808
 11
76.7816
 21
24.9287
  0
LINE
  8
0
 10
76.7816
 20
24.9287
 11
77.45
 21
24.6311
  0
LINE
  8
0
 10
77.45
 20
24.6311
 11
78.0419
 21
24.201
  0
LINE
  8
0
 10
78.0419
 20
24.201
 11
78.5316
 21
23.6572
  0
LINE
  8
0
 10
78.5316
 20
23.6572
 11
78.8974
 21
23.0236
  0
LINE
  8
0
 10
78.8974
 20
23.0236
 11
79.1235
 21
22.3277
  0
LINE
  8
0
 10
79.1235
 20
22.3277
 11
79.2
 21
21.6
  0
LINE
  8
0
 10
79.2
 20
21.6
 11
79.1235
 21
20.8723
  0
LINE
  8
0
 10
79.1235
 20
20.8723
 11
78.8974
 21
20.1764
  0
LINE
  8
0
 10
78.8974
 20
20.1764
 11
78.5316
 21
19.5427
  0
LINE
  8
0
 10
78.5316
 20
19.5427
 11
78.0419
 21
18.999
  0
LINE
  8
0
 10
78.0419
 20
18.999
 11
77.45
 21
18.5689
  0
LINE
  8
0
 10
77.45
 20
18.5689
 11
76.7816
 21
18.2713
  0
LINE
  8
0
 10
76.7816
 20
18.2713
 11
76.0658
 21
18.1192
  0
LINE
  8
0
 10
76.0658
 20
18.1192
 11
75.3341
 21
18.1192
  0
ENDSEC
  0
SECTION
  2
OBJECTS
  0
DICTIONARY
  0
ENDSEC
  0
EOF
